<svg width="207" height="42" viewBox="0 0 207 42" fill="none" xmlns="http://www.w3.org/2000/svg">
<path d="M0.32 32V2.2H4.24V32H0.32ZM10.4269 32V1.72H14.1469V32H10.4269ZM27.5591 32.48C26.0124 32.48 24.6124 32.12 23.3591 31.4C22.1324 30.68 21.1724 29.68 20.4791 28.4C19.8124 27.0933 19.4791 25.6 19.4791 23.92V10.44H23.1991V23.52C23.1991 24.5867 23.4124 25.52 23.8391 26.32C24.2924 27.12 24.9057 27.7467 25.6791 28.2C26.4791 28.6533 27.3857 28.88 28.3991 28.88C29.4124 28.88 30.3057 28.6533 31.0791 28.2C31.8791 27.7467 32.4924 27.0933 32.9191 26.24C33.3724 25.3867 33.5991 24.3733 33.5991 23.2V10.44H37.3591V32H33.7191V27.8L34.3191 28.16C33.8124 29.52 32.9457 30.5867 31.7191 31.36C30.5191 32.1067 29.1324 32.48 27.5591 32.48ZM50.8422 32.48C48.6822 32.48 46.8022 31.9467 45.2022 30.88C43.6022 29.8133 42.4689 28.3733 41.8022 26.56L44.7622 25.12C45.3755 26.4 46.2155 27.4133 47.2822 28.16C48.3489 28.9067 49.5355 29.28 50.8422 29.28C52.0155 29.28 52.9889 29 53.7622 28.44C54.5355 27.88 54.9222 27.1467 54.9222 26.24C54.9222 25.6 54.7355 25.0933 54.3622 24.72C54.0155 24.32 53.5889 24.0133 53.0822 23.8C52.5755 23.56 52.1089 23.3867 51.6822 23.28L48.4422 22.36C46.4955 21.8 45.0689 21 44.1622 19.96C43.2822 18.92 42.8422 17.7067 42.8422 16.32C42.8422 15.04 43.1622 13.9333 43.8022 13C44.4689 12.04 45.3622 11.2933 46.4822 10.76C47.6289 10.2267 48.9089 9.96 50.3222 9.96C52.2155 9.96 53.9089 10.44 55.4022 11.4C56.9222 12.36 58.0022 13.7067 58.6422 15.44L55.6022 16.84C55.1222 15.72 54.4022 14.84 53.4422 14.2C52.4822 13.5333 51.4022 13.2 50.2022 13.2C49.1089 13.2 48.2422 13.48 47.6022 14.04C46.9622 14.5733 46.6422 15.2533 46.6422 16.08C46.6422 16.6933 46.8022 17.2 47.1222 17.6C47.4422 17.9733 47.8289 18.2667 48.2822 18.48C48.7355 18.6667 49.1755 18.8267 49.6022 18.96L53.1222 20C54.8822 20.5067 56.2422 21.2933 57.2022 22.36C58.1889 23.4267 58.6822 24.7067 58.6822 26.2C58.6822 27.4 58.3489 28.48 57.6822 29.44C57.0155 30.4 56.0955 31.1467 54.9222 31.68C53.7489 32.2133 52.3889 32.48 50.8422 32.48ZM72.3119 32.24C70.2052 32.24 68.5785 31.64 67.4319 30.44C66.3119 29.24 65.7519 27.5467 65.7519 25.36V14H61.8319V10.44H62.6319C63.5919 10.44 64.3519 10.1467 64.9119 9.56C65.4719 8.97333 65.7519 8.2 65.7519 7.24V5.48H69.4719V10.44H74.3119V14H69.4719V25.24C69.4719 25.96 69.5785 26.5867 69.7919 27.12C70.0319 27.6533 70.4185 28.08 70.9519 28.4C71.4852 28.6933 72.1919 28.84 73.0719 28.84C73.2585 28.84 73.4852 28.8267 73.7519 28.8C74.0452 28.7733 74.3119 28.7467 74.5519 28.72V32C74.2052 32.08 73.8185 32.1333 73.3919 32.16C72.9652 32.2133 72.6052 32.24 72.3119 32.24ZM79.4113 32V10.44H83.0513V14.4L82.6513 13.84C83.1579 12.6133 83.9313 11.7067 84.9713 11.12C86.0113 10.5067 87.2779 10.2 88.7713 10.2H90.0913V13.72H88.2113C86.6913 13.72 85.4646 14.2 84.5313 15.16C83.5979 16.0933 83.1313 17.4267 83.1313 19.16V32H79.4113ZM99.7156 32.48C98.3023 32.48 97.049 32.2267 95.9556 31.72C94.889 31.1867 94.049 30.4667 93.4356 29.56C92.8223 28.6267 92.5156 27.56 92.5156 26.36C92.5156 25.2133 92.7556 24.1867 93.2356 23.28C93.7423 22.3467 94.5156 21.56 95.5556 20.92C96.6223 20.28 97.9556 19.8267 99.5556 19.56L107.556 18.24V21.36L100.396 22.56C99.009 22.8 97.9956 23.24 97.3556 23.88C96.7423 24.52 96.4356 25.3067 96.4356 26.24C96.4356 27.12 96.7823 27.8533 97.4756 28.44C98.1956 29.0267 99.089 29.32 100.156 29.32C101.516 29.32 102.689 29.04 103.676 28.48C104.689 27.8933 105.476 27.1067 106.036 26.12C106.622 25.1333 106.916 24.04 106.916 22.84V17.36C106.916 16.1867 106.476 15.24 105.596 14.52C104.742 13.7733 103.609 13.4 102.196 13.4C100.969 13.4 99.8756 13.72 98.9156 14.36C97.9823 14.9733 97.289 15.8 96.8356 16.84L93.5956 15.16C93.9956 14.1733 94.6356 13.2933 95.5156 12.52C96.3956 11.72 97.4223 11.0933 98.5956 10.64C99.769 10.1867 100.996 9.96 102.276 9.96C103.929 9.96 105.382 10.28 106.636 10.92C107.889 11.5333 108.862 12.4 109.556 13.52C110.276 14.6133 110.636 15.8933 110.636 17.36V32H106.996V27.92L107.676 28.16C107.222 29.0133 106.609 29.76 105.836 30.4C105.062 31.04 104.156 31.5467 103.116 31.92C102.076 32.2933 100.942 32.48 99.7156 32.48ZM126.403 32.48C124.297 32.48 122.417 31.9867 120.763 31C119.137 30.0133 117.857 28.6667 116.923 26.96C115.99 25.2533 115.523 23.3333 115.523 21.2C115.523 19.04 115.99 17.12 116.923 15.44C117.857 13.76 119.137 12.4267 120.763 11.44C122.417 10.4533 124.297 9.96 126.403 9.96C127.817 9.96 129.137 10.2133 130.363 10.72C131.59 11.2267 132.67 11.9067 133.603 12.76C134.537 13.6133 135.217 14.6133 135.643 15.76L132.323 17.36C131.817 16.24 131.043 15.3333 130.003 14.64C128.963 13.92 127.763 13.56 126.403 13.56C125.097 13.56 123.91 13.8933 122.843 14.56C121.803 15.2267 120.977 16.1333 120.363 17.28C119.75 18.4267 119.443 19.7467 119.443 21.24C119.443 22.68 119.75 23.9867 120.363 25.16C120.977 26.3067 121.803 27.2133 122.843 27.88C123.91 28.5467 125.097 28.88 126.403 28.88C127.763 28.88 128.963 28.5333 130.003 27.84C131.043 27.12 131.817 26.1733 132.323 25L135.643 26.68C135.217 27.8 134.537 28.8 133.603 29.68C132.67 30.5333 131.59 31.2133 130.363 31.72C129.137 32.2267 127.817 32.48 126.403 32.48ZM126.883 41.28C126.137 41.28 125.363 41.1467 124.563 40.88C123.763 40.64 123.11 40.3067 122.603 39.88L123.523 37.44C123.923 37.7867 124.377 38.0533 124.883 38.24C125.39 38.4267 125.883 38.52 126.363 38.52C126.95 38.52 127.417 38.3733 127.763 38.08C128.11 37.8133 128.283 37.4533 128.283 37C128.283 36.4133 127.977 35.9467 127.363 35.6C126.75 35.28 125.777 35.04 124.443 34.88L125.363 31.6H127.803L127.363 33.4C128.75 33.6667 129.803 34.1333 130.523 34.8C131.27 35.4667 131.643 36.28 131.643 37.24C131.643 38.44 131.19 39.4133 130.283 40.16C129.403 40.9067 128.27 41.28 126.883 41.28ZM150.745 32.48C148.665 32.48 146.785 32 145.105 31.04C143.425 30.0533 142.092 28.7067 141.105 27C140.118 25.2933 139.625 23.36 139.625 21.2C139.625 19.04 140.105 17.12 141.065 15.44C142.052 13.76 143.385 12.4267 145.065 11.44C146.745 10.4533 148.638 9.96 150.745 9.96C152.825 9.96 154.705 10.4533 156.385 11.44C158.065 12.4 159.385 13.72 160.345 15.4C161.332 17.08 161.825 19.0133 161.825 21.2C161.825 23.3867 161.318 25.3333 160.305 27.04C159.292 28.72 157.945 30.0533 156.265 31.04C154.612 32 152.772 32.48 150.745 32.48ZM150.745 28.88C152.078 28.88 153.278 28.5467 154.345 27.88C155.438 27.2133 156.292 26.2933 156.905 25.12C157.545 23.9467 157.865 22.64 157.865 21.2C157.865 19.7333 157.545 18.44 156.905 17.32C156.292 16.1733 155.438 15.2667 154.345 14.6C153.278 13.9067 152.078 13.56 150.745 13.56C149.385 13.56 148.158 13.9067 147.065 14.6C145.998 15.2667 145.145 16.1733 144.505 17.32C143.865 18.44 143.545 19.7333 143.545 21.2C143.545 22.64 143.865 23.9467 144.505 25.12C145.145 26.2933 145.998 27.2133 147.065 27.88C148.158 28.5467 149.385 28.88 150.745 28.88ZM153.265 6.4C152.545 6.4 151.958 6.28 151.505 6.04C151.078 5.8 150.705 5.52 150.385 5.2C150.065 4.88 149.745 4.6 149.425 4.36C149.105 4.12 148.718 4 148.265 4C147.838 4 147.492 4.17333 147.225 4.52C146.985 4.84 146.865 5.41333 146.865 6.24H143.865C143.865 4.45333 144.252 3.12 145.025 2.24C145.825 1.33333 146.852 0.879998 148.105 0.879998C148.825 0.879998 149.412 0.999998 149.865 1.24C150.318 1.48 150.705 1.76 151.025 2.08C151.345 2.4 151.652 2.68 151.945 2.92C152.265 3.16 152.652 3.28 153.105 3.28C153.585 3.28 153.958 3.09333 154.225 2.72C154.492 2.32 154.625 1.76 154.625 1.04H157.585C157.585 2.69333 157.185 4 156.385 4.96C155.585 5.92 154.545 6.4 153.265 6.4ZM176.597 32.48C174.517 32.48 172.664 31.9867 171.037 31C169.41 30.0133 168.13 28.6667 167.197 26.96C166.264 25.2267 165.797 23.2933 165.797 21.16C165.797 19 166.25 17.08 167.157 15.4C168.09 13.72 169.344 12.4 170.917 11.44C172.517 10.4533 174.304 9.96 176.277 9.96C177.877 9.96 179.29 10.2533 180.517 10.84C181.77 11.4 182.824 12.1733 183.677 13.16C184.557 14.12 185.224 15.2267 185.677 16.48C186.157 17.7067 186.397 18.9867 186.397 20.32C186.397 20.6133 186.37 20.9467 186.317 21.32C186.29 21.6667 186.25 22 186.197 22.32H168.517V19.12H184.037L182.277 20.56C182.517 19.1733 182.384 17.9333 181.877 16.84C181.37 15.7467 180.624 14.88 179.637 14.24C178.65 13.6 177.53 13.28 176.277 13.28C175.024 13.28 173.877 13.6 172.837 14.24C171.797 14.88 170.984 15.8 170.397 17C169.837 18.1733 169.61 19.5733 169.717 21.2C169.61 22.7733 169.85 24.16 170.437 25.36C171.05 26.5333 171.904 27.4533 172.997 28.12C174.117 28.76 175.33 29.08 176.637 29.08C178.077 29.08 179.29 28.7467 180.277 28.08C181.264 27.4133 182.064 26.56 182.677 25.52L185.797 27.12C185.37 28.1067 184.704 29.0133 183.797 29.84C182.917 30.64 181.864 31.28 180.637 31.76C179.437 32.24 178.09 32.48 176.597 32.48ZM198.967 32.48C196.807 32.48 194.927 31.9467 193.327 30.88C191.727 29.8133 190.594 28.3733 189.927 26.56L192.887 25.12C193.501 26.4 194.341 27.4133 195.407 28.16C196.474 28.9067 197.661 29.28 198.967 29.28C200.141 29.28 201.114 29 201.887 28.44C202.661 27.88 203.047 27.1467 203.047 26.24C203.047 25.6 202.861 25.0933 202.487 24.72C202.141 24.32 201.714 24.0133 201.207 23.8C200.701 23.56 200.234 23.3867 199.807 23.28L196.567 22.36C194.621 21.8 193.194 21 192.287 19.96C191.407 18.92 190.967 17.7067 190.967 16.32C190.967 15.04 191.287 13.9333 191.927 13C192.594 12.04 193.487 11.2933 194.607 10.76C195.754 10.2267 197.034 9.96 198.447 9.96C200.341 9.96 202.034 10.44 203.527 11.4C205.047 12.36 206.127 13.7067 206.767 15.44L203.727 16.84C203.247 15.72 202.527 14.84 201.567 14.2C200.607 13.5333 199.527 13.2 198.327 13.2C197.234 13.2 196.367 13.48 195.727 14.04C195.087 14.5733 194.767 15.2533 194.767 16.08C194.767 16.6933 194.927 17.2 195.247 17.6C195.567 17.9733 195.954 18.2667 196.407 18.48C196.861 18.6667 197.301 18.8267 197.727 18.96L201.247 20C203.007 20.5067 204.367 21.2933 205.327 22.36C206.314 23.4267 206.807 24.7067 206.807 26.2C206.807 27.4 206.474 28.48 205.807 29.44C205.141 30.4 204.221 31.1467 203.047 31.68C201.874 32.2133 200.514 32.48 198.967 32.48Z" fill="#09090A"/>
</svg>
